HIERARCHY
ROOT joint_Root
{
	OFFSET 0.0 0.0 0.0
	CHANNELS 6 Xposition Yposition Zposition Zrotation Xrotation Yrotation 
	JOINT Hips
	{
		OFFSET 4.5925 91.4895 -427.239
		CHANNELS 6 Xposition Yposition Zposition Zrotation Xrotation Yrotation 
		JOINT Spine
		{
			OFFSET 15.7357 0.0 0.0
			CHANNELS 6 Xposition Yposition Zposition Zrotation Xrotation Yrotation 
			JOINT Chest
			{
				OFFSET 8.98455 -0.406207 0.0
				CHANNELS 6 Xposition Yposition Zposition Zrotation Xrotation Yrotation 
				JOINT Neck
				{
					OFFSET 16.3773 0.0 0.0
					CHANNELS 6 Xposition Yposition Zposition Zrotation Xrotation Yrotation 
					JOINT Head
					{
						OFFSET 6.45672 0.0 0.0
						CHANNELS 6 Xposition Yposition Zposition Zrotation Xrotation Yrotation 
						End Site
						{
							OFFSET 0.0 0.0 0.0
						}
					}
				}
				JOINT Shoulder_L
				{
					OFFSET 12.9942 -0.242716 4.98039
					CHANNELS 6 Xposition Yposition Zposition Zrotation Xrotation Yrotation 
					JOINT UpperArm_L
					{
						OFFSET 5.34809 0.0 0.0
						CHANNELS 6 Xposition Yposition Zposition Zrotation Xrotation Yrotation 
						JOINT LowerArm_L
						{
							OFFSET 24.3286 1.87007e-05 0.0
							CHANNELS 6 Xposition Yposition Zposition Zrotation Xrotation Yrotation 
							JOINT Hand_L
							{
								OFFSET 22.2916 0.0 0.0
								CHANNELS 6 Xposition Yposition Zposition Zrotation Xrotation Yrotation 
								End Site
								{
									OFFSET 0.0 0.0 0.0
								}
							}
						}
					}
				}
				JOINT Shoulder_R
				{
					OFFSET 12.9945 -0.242716 -4.98039
					CHANNELS 6 Xposition Yposition Zposition Zrotation Xrotation Yrotation 
					JOINT UpperArm_R
					{
						OFFSET -5.34813 0.0 0.0
						CHANNELS 6 Xposition Yposition Zposition Zrotation Xrotation Yrotation 
						JOINT LowerArm_R
						{
							OFFSET -24.3289 0.000322201 0.0
							CHANNELS 6 Xposition Yposition Zposition Zrotation Xrotation Yrotation 
							JOINT Hand_R
							{
								OFFSET -22.2915 -0.000108084 0.0
								CHANNELS 6 Xposition Yposition Zposition Zrotation Xrotation Yrotation 
								End Site
								{
									OFFSET 0.0 0.0 0.0
								}
							}
						}
					}
				}
			}
		}
		JOINT UpperLeg_L
		{
			OFFSET -2.19248 -6.46944 0.0
			CHANNELS 6 Xposition Yposition Zposition Zrotation Xrotation Yrotation 
			JOINT LowerLeg_L
			{
				OFFSET 39.0811 0.0 -1.23785e-05
				CHANNELS 6 Xposition Yposition Zposition Zrotation Xrotation Yrotation 
				JOINT Foot_L
				{
					OFFSET 40.9854 0.0 -1.26872e-05
					CHANNELS 6 Xposition Yposition Zposition Zrotation Xrotation Yrotation 
					JOINT Toes_L
					{
						OFFSET 11.7543 0.0 0.0
						CHANNELS 6 Xposition Yposition Zposition Zrotation Xrotation Yrotation 
						End Site
						{
							OFFSET 0.0 0.0 0.0
						}
					}
				}
			}
		}
		JOINT UpperLeg_R
		{
			OFFSET -2.19251 6.46944 0.0
			CHANNELS 6 Xposition Yposition Zposition Zrotation Xrotation Yrotation 
			JOINT LowerLeg_R
			{
				OFFSET -39.0811 -0.00228153 -0.0401928
				CHANNELS 6 Xposition Yposition Zposition Zrotation Xrotation Yrotation 
				JOINT Foot_R
				{
					OFFSET -40.9854 0.0 0.0
					CHANNELS 6 Xposition Yposition Zposition Zrotation Xrotation Yrotation 
					JOINT Toes_R
					{
						OFFSET -11.7543 0.0 0.0
						CHANNELS 6 Xposition Yposition Zposition Zrotation Xrotation Yrotation 
						End Site
						{
							OFFSET 0.0 0.0 0.0
						}
					}
				}
			}
		}
	}
}
MOTION
Frames:	4
Frame Time:	0.0333333
0.000000 0.000000 0.000000 0.000000 0.000000 -0.000000 -5.171620 87.067100 50.392900 -88.987100 10.898300 -177.103000 15.735700 0.000005 -0.000001 111.997000 83.074200 -112.245000 8.984550 -0.406207 -0.000000 5.105150 5.183140 -0.728191 16.377300 -0.000001 -0.000001 -3.296230 -3.380740 2.535530 6.456720 -0.000001 -0.000000 -12.699800 -5.558440 2.280740 12.994200 -0.242716 4.980390 -91.135000 3.359690 -71.322300 5.348090 -0.000007 -0.000001 -69.799200 16.367600 13.101100 24.328600 0.000019 0.000005 1.633270 30.976000 -3.171240 22.291600 -0.000001 0.000005 10.547900 5.020000 6.890870 12.994500 -0.242716 -4.980390 89.190700 8.345210 -84.441400 -5.348130 -0.000001 -0.000004 -44.064400 18.155900 -42.690800 -24.328900 0.000322 -0.000009 -2.379760 -2.089280 -48.725800 -22.291500 -0.000108 -0.000004 22.115000 5.454540 -4.797780 -2.192480 -6.469440 -0.000000 -178.132000 -14.091100 -31.829900 39.081100 -0.000007 -0.000012 0.107998 -0.217213 26.436400 40.985400 -0.000006 -0.000013 0.620662 -1.576250 -55.041100 11.754300 -0.000000 0.000003 -0.004794 -0.059470 -18.996400 -2.192510 6.469440 -0.000001 174.255000 9.684180 -172.058000 -39.081100 -0.002282 -0.040193 -0.018450 0.034191 32.457200 -40.985400 0.000008 0.000006 9.166910 11.396800 -79.041100 -11.754300 -0.000006 -0.000006 -2.068550 -2.086820 -25.915600
0.000000 0.000000 0.000000 0.000000 0.000000 -0.000000 -6.277020 86.538100 45.352200 -90.210600 11.141900 -177.453000 15.735700 0.000005 -0.000001 112.963000 83.332400 -113.698000 8.984550 -0.406207 -0.000000 4.561620 5.213910 -1.677040 16.377300 -0.000001 -0.000001 -3.119790 -3.487450 2.706190 6.456720 -0.000001 -0.000000 -12.746700 -5.689230 2.668460 12.994200 -0.242716 4.980390 -91.262700 3.694700 -71.117600 5.348090 -0.000007 -0.000001 -69.324500 15.876900 13.144700 24.328600 0.000019 0.000005 0.619047 32.032400 -1.167260 22.291600 -0.000001 0.000005 10.403000 4.980150 7.739710 12.994500 -0.242716 -4.980390 89.098600 8.728780 -84.080900 -5.348130 -0.000001 -0.000004 -44.646100 17.608500 -41.469300 -24.328900 0.000322 -0.000009 -2.704330 -2.126140 -51.840900 -22.291500 -0.000108 -0.000004 23.124400 5.473630 -5.505390 -2.192480 -6.469440 -0.000000 -179.965000 -13.609800 -33.567000 39.081100 -0.000007 -0.000012 0.079942 -0.125832 32.427900 40.985400 -0.000006 -0.000013 1.222400 -1.163470 -49.133500 11.754300 -0.000000 0.000003 -0.004745 -0.058980 -18.976400 -2.192510 6.469440 -0.000001 171.994000 7.111620 -171.775000 -39.081100 -0.002282 -0.040193 0.007438 -0.005728 35.921300 -40.985400 0.000008 0.000006 8.271240 10.404900 -76.494700 -11.754300 -0.000006 -0.000006 -0.063438 -0.342788 -30.742300
0.000000 0.000000 0.000000 0.000000 0.000000 -0.000000 -7.246950 86.282800 39.976200 -91.094400 11.206500 -176.762000 15.735700 0.000005 -0.000001 112.789000 83.383300 -113.925000 8.984550 -0.406207 -0.000000 4.501270 5.149360 -2.473400 16.377300 -0.000001 -0.000001 -3.039610 -3.517050 2.683120 6.456720 -0.000001 -0.000000 -12.391100 -5.918060 3.236130 12.994200 -0.242716 4.980390 -91.376300 4.012000 -71.048200 5.348090 -0.000007 -0.000001 -68.934600 15.532200 12.255300 24.328600 0.000019 0.000005 0.000043 32.611400 -0.000003 22.291600 -0.000001 0.000005 9.746110 4.930990 8.754680 12.994500 -0.242716 -4.980390 89.029600 9.099520 -83.886700 -5.348130 -0.000001 -0.000004 -46.825600 17.809300 -38.306900 -24.328900 0.000322 -0.000009 -2.664290 -1.943340 -53.906800 -22.291500 -0.000108 -0.000004 23.581700 5.479500 -5.729210 -2.192480 -6.469440 -0.000000 179.272000 -11.994700 -33.117600 39.081100 -0.000007 -0.000012 0.008131 -0.009892 39.413100 40.985400 -0.000006 -0.000013 0.997356 -2.243810 -53.640000 11.754300 -0.000000 0.000003 -0.001189 -0.018065 -17.311400 -2.192510 6.469440 -0.000001 170.493000 4.852080 -172.158000 -39.081100 -0.002282 -0.040193 0.069342 -0.073861 41.812600 -40.985400 0.000008 0.000006 8.528190 8.680430 -69.658800 -11.754300 -0.000006 -0.000006 -0.166020 -0.585429 -41.437800
0.000000 0.000000 0.000000 0.000000 0.000000 -0.000000 -8.071410 86.264600 34.586800 -91.214300 10.890000 -174.820000 15.735700 0.000005 -0.000001 110.896000 82.968600 -112.110000 8.984550 -0.406207 -0.000000 5.442860 5.029080 -2.664530 16.377300 -0.000001 -0.000001 -2.973140 -3.730650 2.358370 6.456720 -0.000001 -0.000000 -12.124700 -6.132470 3.117210 12.994200 -0.242716 4.980390 -91.324900 3.937820 -71.387900 5.348090 -0.000007 -0.000001 -69.340500 15.680400 9.955860 24.328600 0.000019 0.000005 -0.000001 32.451100 -0.000003 22.291600 -0.000001 0.000005 8.887850 4.933680 8.697450 12.994500 -0.242716 -4.980390 89.055500 8.890210 -83.910900 -5.348130 -0.000001 -0.000004 -50.482700 18.234000 -33.865500 -24.328900 0.000322 -0.000009 -2.769070 -1.978460 -54.470600 -22.291500 -0.000108 -0.000004 23.614700 5.480160 -5.754570 -2.192480 -6.469440 -0.000000 178.985000 -12.037900 -29.916700 39.081100 -0.000007 -0.000012 -0.070482 0.071565 44.564600 40.985400 -0.000006 -0.000013 1.386420 -2.003020 -60.148800 11.754300 -0.000000 0.000003 -0.000015 -0.000200 -16.585400 -2.192510 6.469440 -0.000001 169.396000 4.875530 -173.957000 -39.081100 -0.002282 -0.040193 0.156406 -0.125546 50.658700 -40.985400 0.000008 0.000006 9.651810 7.885020 -57.765400 -11.754300 -0.000006 -0.000006 -0.243230 -0.712507 -47.469300
